<svg xmlns="http://www.w3.org/2000/svg" xmlns:xlink="http://www.w3.org/1999/xlink" version="1.1" x="0px" y="0px" viewBox="0 0 100 100" enable-background="new 0 0 100 100" xml:space="preserve"><g><path d="M50,97.5L2.5,50L50,2.5L97.5,50L50,97.5z M13.8,50L50,86.2L86.2,50L50,13.8L13.8,50z"></path></g><g><rect x="40" y="52" transform="matrix(0.7071 0.7071 -0.7071 0.7071 53.3028 -12.7369)" width="4" height="12"></rect></g><g><path d="M54,58c-6.6,0-12-5.4-12-12s5.4-12,12-12s12,5.4,12,12S60.6,58,54,58z M54,38c-4.4,0-8,3.6-8,8s3.6,8,8,8s8-3.6,8-8   S58.4,38,54,38z"></path></g></svg>